<?xml version="1.0" standalone="no"?>
<!DOCTYPE svg PUBLIC "-//W3C//DTD SVG 20010904//EN"
 "http://www.w3.org/TR/2001/REC-SVG-20010904/DTD/svg10.dtd">
<svg version="1.0" xmlns="http://www.w3.org/2000/svg"
 width="1024.000000pt" height="1024.000000pt" viewBox="0 0 1024.000000 1024.000000"
 preserveAspectRatio="xMidYMid meet">
<metadata>
Created by potrace 1.16, written by Peter Selinger 2001-2019
</metadata>
<g transform="translate(0.000000,1024.000000) scale(0.100000,-0.100000)" fill="#34383E" stroke="none">
<path d="M0 5120 l0 -5120 5120 0 5120 0 0 5120 0 5120 -5120 0 -5120 0 0
-5120z m7260 4090 c368 -59 715 -319 875 -655 43 -91 80 -217 94 -319 8 -53
11 -666 11 -1931 0 -1987 2 -1910 -50 -2065 -75 -227 -241 -452 -428 -579 -75
-51 -210 -118 -296 -147 -165 -57 -48 -54 -2340 -54 -1387 0 -2133 4 -2174 10
-147 24 -342 105 -466 194 -100 71 -162 132 -241 238 -89 117 -152 239 -190
362 -57 187 -55 107 -55 2078 0 1238 3 1841 11 1894 64 461 401 825 879 950
59 16 181 18 1285 24 2183 11 3016 10 3085 0z m1810 -7085 l0 -866 -157 3
-158 3 2 77 3 76 -55 -54 c-77 -78 -164 -116 -272 -122 -166 -9 -277 32 -389
143 -136 135 -202 321 -191 535 11 186 63 322 169 436 182 194 522 208 688 28
l40 -44 0 325 0 325 160 0 160 0 0 -865z m-3730 500 l0 -134 138 -3 137 -3 3
-117 3 -117 -138 -3 -138 -3 0 -320 c0 -413 -3 -406 180 -415 l100 -5 3 -127
3 -126 -67 -7 c-154 -17 -315 15 -400 80 -50 38 -92 99 -112 164 -14 48 -17
105 -17 406 l0 350 -82 3 -83 3 0 119 0 119 83 3 82 3 3 133 3 132 149 0 150
0 0 -135z m-2293 -131 c146 -38 285 -152 348 -285 44 -94 62 -169 70 -294 6
-81 4 -103 -7 -113 -11 -9 -127 -12 -429 -14 l-414 -3 3 -40 c5 -56 37 -123
79 -167 53 -54 122 -81 213 -82 94 -1 159 28 205 92 l30 41 150 -2 c174 -2
172 -1 129 -94 -58 -124 -220 -246 -380 -287 -196 -50 -432 12 -562 148 -104
108 -153 218 -172 383 -44 375 158 683 480 733 66 10 184 3 257 -16z m3438 -4
c250 -78 402 -310 393 -600 l-3 -95 -422 -3 -423 -2 0 -25 c0 -52 42 -139 90
-186 114 -111 317 -106 409 10 l33 41 149 0 149 0 0 -23 c0 -42 -59 -144 -115
-198 -68 -68 -161 -124 -250 -152 -144 -45 -358 -23 -485 51 -111 64 -215 196
-261 332 -33 100 -39 307 -10 419 26 105 56 169 115 249 75 101 191 174 321
202 67 15 232 4 310 -20z m1254 19 l31 -11 0 -133 0 -132 -113 -5 c-101 -4
-119 -7 -160 -31 -56 -33 -96 -96 -114 -181 -9 -43 -13 -167 -13 -409 l0 -348
-152 3 -153 3 0 608 c0 335 3 613 6 618 3 6 68 8 150 7 l144 -3 -3 -73 -2 -74
50 55 c88 96 227 141 329 106z m-5920 -14 c169 -40 293 -160 345 -334 31 -106
38 -101 -128 -101 l-144 0 -12 34 c-17 51 -75 112 -125 131 -34 13 -65 16
-129 13 -72 -4 -92 -9 -133 -34 -106 -66 -148 -162 -147 -344 0 -133 22 -205
81 -270 122 -136 385 -108 449 47 l14 33 151 0 152 0 -7 -42 c-19 -120 -134
-266 -257 -327 -128 -63 -318 -77 -473 -36 -206 54 -356 205 -410 410 -45 166
-28 353 45 503 75 154 225 275 394 316 80 19 254 20 334 1z m2630 -6 c128 -44
243 -161 286 -294 19 -56 20 -90 20 -495 l0 -435 -147 -3 -148 -3 0 369 c0
397 -5 443 -54 519 -31 49 -52 68 -106 92 -134 61 -280 -11 -333 -163 -7 -19
-13 -184 -16 -421 l-6 -390 -152 -3 -153 -3 -2 471 c-2 258 -3 536 -3 618 l0
147 150 0 150 0 5 -73 5 -73 30 31 c46 49 113 91 174 111 82 26 219 25 300 -2z"/>
<path d="M4890 8535 c-461 -64 -859 -292 -1127 -646 -164 -217 -269 -483 -308
-782 -22 -173 -22 -1419 0 -1569 21 -135 48 -238 96 -367 171 -449 584 -826
1057 -965 182 -54 267 -67 463 -73 216 -6 320 7 509 64 314 94 538 228 760
452 257 259 407 564 449 909 15 118 15 1525 1 1622 -27 181 -112 431 -192 562
-60 100 -141 203 -232 297 -265 272 -543 415 -951 486 -160 29 -362 32 -525
10z m140 -605 l0 -230 -29 -41 c-16 -22 -34 -63 -40 -90 -14 -65 -14 -403 0
-468 21 -99 87 -161 170 -161 56 0 97 29 132 94 20 38 22 57 25 261 4 242 -3
297 -46 366 l-27 44 3 224 2 224 63 -7 c283 -31 546 -157 740 -354 l68 -69
-1107 -1106 c-609 -609 -1110 -1107 -1114 -1107 -5 0 -14 24 -22 53 -19 75
-19 1471 0 1567 24 119 73 274 112 358 92 195 257 365 485 500 142 83 403 165
548 171 l37 1 0 -230z m1340 -676 c16 -60 33 -153 39 -207 15 -128 15 -1265 0
-1394 -51 -458 -301 -809 -715 -1004 -204 -97 -394 -135 -629 -126 -267 10
-473 80 -689 236 -87 64 -273 248 -323 322 l-31 45 1146 1151 1147 1150 14
-31 c7 -17 26 -81 41 -142z"/>
<path d="M8377 2236 c-131 -47 -197 -166 -198 -357 -1 -178 51 -288 165 -346
41 -22 65 -27 127 -27 65 -1 84 3 135 29 106 54 164 174 164 335 0 142 -40
244 -122 314 -70 60 -185 82 -271 52z"/>
<path d="M2810 2271 c-103 -34 -190 -142 -190 -238 l0 -23 265 0 c301 0 278
-8 249 89 -18 61 -70 123 -128 153 -44 23 -153 33 -196 19z"/>
<path d="M6209 2266 c-61 -22 -107 -64 -139 -130 -16 -33 -31 -74 -32 -91 l-3
-30 240 -3 c132 -1 250 0 263 3 28 7 29 36 1 109 -24 65 -87 126 -147 144 -51
15 -137 15 -183 -2z"/>
</g>
</svg>
